<?xml version="1.0" standalone="no"?>
<!DOCTYPE svg PUBLIC "-//W3C//DTD SVG 20010904//EN"
 "http://www.w3.org/TR/2001/REC-SVG-20010904/DTD/svg10.dtd">
<svg version="1.0" xmlns="http://www.w3.org/2000/svg"
 width="672.000000pt" height="672.000000pt" viewBox="0 0 672.000000 672.000000"
 preserveAspectRatio="xMidYMid meet">
<metadata>
Created by potrace 1.11, written by Peter Selinger 2001-2013
</metadata>
<g transform="translate(0.000000,672.000000) scale(0.100000,-0.100000)"
fill="#000000" stroke="none">
<path d="M1188 5294 c-92 -16 -189 -52 -278 -101 -78 -44 -202 -165 -249 -245
-73 -126 -75 -135 -371 -1879 -154 -911 -280 -1659 -280 -1663 0 -3 200 -6
444 -6 l444 0 6 28 c3 15 44 243 91 507 47 264 88 492 91 507 l6 28 356 0 357
0 95 -535 95 -535 438 0 c240 0 437 4 437 9 0 4 -27 122 -60 261 -33 139 -60
254 -60 256 0 2 119 4 265 4 146 0 265 4 265 8 0 5 -34 48 -75 96 -41 48 -75
91 -75 95 0 4 48 27 106 51 58 25 107 47 110 51 2 3 -48 28 -111 55 -114 47
-115 48 -97 68 106 122 142 165 142 170 0 3 -143 7 -317 8 l-318 3 -3 27 -3
28 285 2 285 3 -80 92 c-43 50 -79 96 -79 100 0 5 50 30 110 57 61 27 107 52
103 56 -4 4 -54 26 -110 50 -57 24 -103 46 -103 50 0 3 34 46 75 94 41 48 75
92 75 97 0 5 -177 9 -437 9 l-438 0 -49 75 c-27 41 -51 75 -55 75 -3 0 -26
-34 -51 -75 -44 -74 -45 -75 -86 -75 -41 0 -43 2 -90 75 -27 41 -52 74 -56 72
-4 -1 -27 -33 -51 -72 -42 -69 -43 -70 -87 -73 l-45 -2 -44 75 c-25 41 -48 75
-51 75 -3 0 -26 -34 -51 -75 -43 -73 -45 -74 -86 -75 -41 0 -42 1 -89 75 -26
41 -50 75 -53 75 -3 0 -26 -34 -51 -75 -44 -74 -46 -75 -87 -75 -41 0 -42 1
-88 75 -26 41 -50 75 -54 75 -4 0 -22 -31 -41 -70 -23 -47 -40 -70 -51 -70
-31 0 -102 64 -128 115 -34 66 -36 170 -4 230 43 80 109 123 207 132 l63 6 37
-66 c20 -36 41 -69 46 -72 5 -3 30 26 56 65 46 68 48 70 88 70 39 0 43 -3 86
-66 24 -36 48 -68 52 -70 4 -3 28 27 54 66 45 68 48 70 88 70 37 0 43 -4 68
-43 15 -23 38 -55 51 -71 l23 -28 47 71 c45 68 49 71 87 71 38 0 42 -3 86 -70
26 -38 50 -70 53 -70 3 0 26 32 51 70 l45 70 142 0 143 0 -5 28 c-3 15 -32
234 -65 487 -33 253 -69 494 -80 535 -38 137 -94 235 -190 330 -93 94 -171
141 -303 184 -162 53 -447 71 -619 40z m455 -79 c106 -18 228 -61 302 -106 83
-50 183 -159 228 -250 54 -111 71 -191 127 -629 28 -217 53 -409 56 -427 l6
-32 -668 -3 -669 -3 -60 -28 c-73 -34 -119 -77 -151 -140 -93 -182 -6 -407
178 -462 44 -13 154 -15 759 -15 l707 0 6 -27 c3 -16 28 -154 56 -308 28 -154
54 -290 57 -302 l5 -23 270 -2 269 -3 -60 -70 c-33 -38 -60 -73 -61 -76 0 -4
37 -22 81 -40 l82 -34 -69 -32 c-38 -17 -75 -32 -81 -32 -22 -1 -15 -15 46
-87 l59 -69 -233 -5 -232 -5 58 -250 c33 -137 59 -255 59 -262 0 -10 -73 -13
-354 -13 l-355 0 -10 53 c-13 64 -181 1003 -181 1011 0 4 -190 5 -422 4 l-422
-3 -95 -532 -95 -533 -369 0 -369 0 6 27 c3 16 125 735 271 1598 146 864 273
1597 281 1630 45 175 176 338 334 413 47 22 119 48 160 57 41 9 80 18 85 20
32 11 333 3 408 -10z m1386 -2112 c-8 -10 -36 -44 -63 -76 -27 -31 -47 -59
-45 -60 2 -2 40 -19 83 -37 l80 -34 -82 -39 -83 -38 18 -24 c10 -13 38 -46 61
-74 l44 -51 -211 0 c-116 0 -211 4 -211 8 0 9 -67 385 -75 420 l-5 22 251 0
c238 0 251 -1 238 -17z"/>
<path d="M1016 4773 c-4 -9 -1 -22 6 -28 19 -18 416 -157 436 -153 14 3 32 48
19 48 -2 0 -98 34 -213 75 -115 41 -216 75 -225 75 -9 0 -20 -8 -23 -17z"/>
<path d="M1817 4708 c-122 -41 -211 -76 -214 -85 -3 -8 1 -21 9 -29 12 -13 42
-5 232 59 119 41 222 79 228 85 16 16 1 42 -24 41 -13 0 -117 -32 -231 -71z"/>
<path d="M1120 4534 c-137 -59 -179 -232 -82 -344 126 -147 362 -79 388 112
22 162 -156 297 -306 232z m171 -77 c68 -45 90 -143 46 -207 -83 -124 -268
-82 -284 64 -6 54 25 119 70 146 46 28 124 27 168 -3z"/>
<path d="M1207 4368 c-9 -7 -19 -25 -22 -40 -5 -21 -1 -33 19 -52 14 -15 34
-26 46 -26 50 0 80 79 42 113 -22 20 -62 22 -85 5z"/>
<path d="M1799 4522 c-109 -57 -148 -182 -92 -292 38 -75 93 -112 172 -118 72
-5 121 10 168 51 48 42 73 99 73 167 0 171 -169 272 -321 192z m183 -59 c37
-23 65 -68 73 -118 8 -53 -27 -122 -74 -149 -47 -27 -122 -26 -159 0 -96 72
-96 205 0 264 42 25 119 26 160 3z"/>
<path d="M1916 4361 c-26 -29 -18 -82 17 -101 24 -13 30 -13 55 0 55 31 34
120 -28 120 -15 0 -35 -9 -44 -19z"/>
<path d="M4151 5073 c31 -331 49 -1024 49 -1899 0 -733 -2 -794 -31 -794 -11
0 -28 9 -39 20 -18 18 -20 34 -21 163 0 165 -10 203 -58 231 -29 17 -39 18
-77 8 -31 -9 -51 -9 -75 0 -24 8 -40 8 -64 -1 -24 -8 -40 -9 -61 -1 -40 15
-86 5 -115 -26 -24 -26 -24 -26 -24 -257 0 -270 9 -311 85 -411 82 -108 217
-166 385 -166 l76 0 -6 -67 c-10 -122 -25 -374 -25 -424 l0 -49 314 0 314 0 6
31 c3 17 6 88 6 158 0 69 3 176 6 237 l7 111 106 6 c179 9 304 66 381 174 70
98 75 126 75 401 l0 244 -29 25 c-25 21 -36 24 -75 19 -25 -3 -54 -6 -63 -5
-10 0 -38 0 -63 0 -25 0 -53 0 -62 0 -10 -1 -39 2 -64 5 -39 5 -50 2 -75 -19
l-29 -25 -5 -172 c-5 -155 -7 -173 -24 -186 -11 -8 -30 -14 -42 -14 l-22 0 4
228 c3 125 7 241 9 257 l5 30 225 -3 c250 -4 408 10 624 53 371 76 671 245
840 474 41 55 131 218 131 236 0 3 -228 5 -508 5 l-507 0 -55 46 c-68 56 -210
126 -310 153 -152 41 -337 49 -487 21 -50 -9 -55 3 -23 55 42 69 -13 65 1026
65 l937 0 -6 123 c-13 259 -100 468 -267 638 -185 188 -421 294 -790 355 -91
15 -201 18 -811 21 l-705 4 7 -78z m1326 -4 c161 -13 322 -41 438 -74 128 -37
314 -131 411 -208 179 -143 296 -369 311 -604 l6 -92 -909 -3 c-909 -3 -909
-3 -949 -25 -83 -44 -124 -119 -125 -224 0 -116 62 -203 169 -236 39 -12 166
-13 874 -7 655 5 827 4 827 -6 0 -24 -94 -154 -160 -220 -155 -155 -418 -284
-691 -339 -257 -52 -575 -73 -798 -52 -68 6 -125 10 -126 9 -1 -2 -10 -286
-19 -633 -9 -346 -19 -687 -22 -757 l-7 -128 -238 0 -239 0 0 54 c0 54 15 307
25 422 l5 61 -127 6 c-75 3 -150 12 -180 21 -67 21 -140 71 -180 124 -55 72
-63 119 -63 359 l0 213 24 0 c13 0 26 -7 30 -15 3 -9 18 -15 40 -15 21 0 36 6
40 15 3 8 15 15 26 15 11 0 23 -7 26 -15 8 -21 70 -20 78 1 3 9 15 14 28 12
23 -3 23 -6 28 -163 4 -133 8 -166 23 -188 31 -47 74 -67 148 -67 l66 0 5 483
c8 777 -9 1753 -38 2190 l-7 97 561 0 c315 0 617 -5 689 -11z m-453 -2344 c8
-8 30 -15 49 -15 22 0 37 6 41 15 3 8 12 15 21 15 9 0 18 -7 21 -15 7 -16 84
-22 84 -6 0 15 32 22 46 10 19 -16 19 -360 0 -440 -26 -114 -100 -199 -205
-241 -42 -16 -85 -23 -170 -26 l-114 -4 6 92 c4 51 7 117 7 145 l0 52 38 7
c22 3 51 15 66 27 49 39 56 65 56 227 0 102 4 152 12 160 16 16 23 15 42 -3z"/>
<path d="M5030 4811 c-188 -66 -215 -79 -218 -99 -3 -17 1 -22 20 -22 40 0
433 146 436 162 8 41 -23 36 -238 -41z"/>
<path d="M5652 4868 c3 -20 29 -32 208 -95 113 -39 215 -72 226 -72 24 -1 37
19 25 38 -8 12 -414 151 -444 151 -13 0 -18 -6 -15 -22z"/>
<path d="M4986 4610 c-55 -27 -72 -45 -101 -103 -45 -90 -25 -189 51 -256 168
-148 417 15 353 230 -37 121 -189 186 -303 129z m164 -62 c56 -29 84 -75 84
-140 0 -149 -206 -204 -284 -76 -27 44 -27 120 0 163 22 36 90 75 130 75 14 0
46 -10 70 -22z"/>
<path d="M5780 4619 c-49 -20 -93 -63 -116 -113 -43 -91 -27 -175 45 -247 90
-90 223 -88 309 5 68 73 79 158 35 247 -40 78 -94 113 -181 116 -37 2 -78 -2
-92 -8z m146 -68 c108 -49 114 -208 12 -271 -69 -42 -166 -17 -208 52 -27 45
-27 120 2 166 22 36 85 72 128 72 14 0 43 -9 66 -19z"/>
</g>
</svg>
